<?xml version="1.0" encoding="UTF-8"?>
<svg width="1200pt" height="1200pt" version="1.1" viewBox="0 0 1200 1200" xmlns="http://www.w3.org/2000/svg">
 <path d="m941.15 576h174.85v48h-349.7c-11.645 81.414-81.66 144-166.3 144s-154.65-62.586-166.3-144h-349.7v-48h174.85-198.55c9.5977-286.59 247.56-516 539.7-516s530.1 229.41 539.7 516zm-880.31 48h62.371c24.082 242.56 228.73 432 477.63 432 248.9 0 453.55-189.44 477.63-432h60.695c-15.734 280.96-251.11 504-539.16 504s-523.43-223.04-539.16-504zm515.16-516c-105.1 0-227.87 47.199-305.26 127.33-9.2109 9.5312-8.9453 24.727 0.58984 33.934 9.5312 9.2109 24.727 8.9453 33.934-0.58984 67.906-70.301 178.12-112.67 270.74-112.67 13.254 0 24-10.746 24-24s-10.746-24-24-24zm24 624c72.902 0 132-59.098 132-132s-59.098-132-132-132-132 59.098-132 132 59.098 132 132 132z" fill="#fff"/>
</svg>
